<svg height="512pt" viewBox="-82 0 512 512" width="512pt" xmlns="http://www.w3.org/2000/svg"><path d="m238 90h-128l40-40h48zm0 0" fill="#8690a6"/><path d="m250 378h-152l-37.167969-64h226.335938zm0 0" fill="#8690a6"/><path d="m98 378h152v124h-152zm0 0" fill="#b5bcc9"/><path d="m26 130h296v144h-296zm0 0" fill="#d5f5fb"/><path d="m94 130h160v144h-160zm0 0" fill="#fff"/><path d="m10 90h328v40h-328zm0 0" fill="#b5bcc9"/><path d="m10 274h328v40h-328zm0 0" fill="#b5bcc9"/><path d="m33.070312 241.070312c1.859376-1.859374 2.929688-4.441406 2.929688-7.070312s-1.070312-5.210938-2.929688-7.070312c-1.859374-1.859376-4.441406-2.929688-7.070312-2.929688s-5.210938 1.070312-7.070312 2.929688c-1.859376 1.859374-2.929688 4.441406-2.929688 7.070312s1.070312 5.210938 2.929688 7.070312c1.859374 1.859376 4.441406 2.929688 7.070312 2.929688s5.210938-1.070312 7.070312-2.929688zm0 0"/><path d="m338 140c5.523438 0 10-4.476562 10-10v-40c0-5.523438-4.476562-10-10-10h-95.855469l-37.074219-37.070312c-1.875-1.875-4.417968-2.929688-7.070312-2.929688h-13.871094v-30c0-5.523438-4.480468-10-10-10-5.523437 0-10 4.476562-10 10v30h-14.128906c-2.652344 0-5.195312 1.054688-7.070312 2.929688l-37.074219 37.070312h-95.855469c-5.523438 0-10 4.476562-10 10v40c0 5.523438 4.476562 10 10 10h6v54c0 5.523438 4.476562 10 10 10s10-4.476562 10-10v-54h48v124h-74c-5.523438 0-10 4.476562-10 10v40c0 5.523438 4.476562 10 10 10h45.074219l32.925781 56.691406v121.308594c0 5.523438 4.476562 10 10 10h152c5.523438 0 10-4.476562 10-10v-121.308594l32.925781-56.691406h45.074219c5.523438 0 10-4.476562 10-10v-40c0-5.523438-4.476562-10-10-10h-6v-124zm-183.855469-80h39.714844l20 20h-79.714844zm-134.144531 40h308v20h-308zm220 392h-132v-104h132zm4.242188-124h-140.484376l-25.554687-44h191.59375zm83.757812-64h-308v-20h308zm-16-40h-48v-54c0-5.523438-4.476562-10-10-10s-10 4.476562-10 10v54h-140v-124h208zm0 0"/><path d="m174 467c5.523438 0 10-4.476562 10-10v-22c0-5.523438-4.476562-10-10-10s-10 4.476562-10 10v22c0 5.523438 4.476562 10 10 10zm0 0"/><path d="m254 180c2.628906 0 5.210938-1.070312 7.070312-2.929688 1.859376-1.859374 2.929688-4.441406 2.929688-7.070312s-1.070312-5.210938-2.929688-7.070312c-1.859374-1.859376-4.441406-2.929688-7.070312-2.929688s-5.210938 1.070312-7.070312 2.929688c-1.859376 1.859374-2.929688 4.441406-2.929688 7.070312s1.070312 5.210938 2.929688 7.070312c1.859374 1.859376 4.441406 2.929688 7.070312 2.929688zm0 0"/></svg>